<?xml version="1.0" encoding="UTF-8" standalone="no"?>
<!-- Created with Inkscape (http://www.inkscape.org/) -->

<svg
   xmlns:dc="http://purl.org/dc/elements/1.1/"
   xmlns:cc="http://creativecommons.org/ns#"
   xmlns:rdf="http://www.w3.org/1999/02/22-rdf-syntax-ns#"
   xmlns:svg="http://www.w3.org/2000/svg"
   xmlns="http://www.w3.org/2000/svg"
   xmlns:sodipodi="http://sodipodi.sourceforge.net/DTD/sodipodi-0.dtd"
   xmlns:inkscape="http://www.inkscape.org/namespaces/inkscape"
   width="19.999992mm"
   height="20.000006mm"
   viewBox="0 0 19.999992 20.000005"
   version="1.1"
   id="svg36"
   inkscape:version="0.92.4 (5da689c313, 2019-01-14)"
   sodipodi:docname="logo-patricia.svg">
  <defs
     id="defs30" />
  <sodipodi:namedview
     id="base"
     pagecolor="#ffffff"
     bordercolor="#666666"
     borderopacity="1.0"
     inkscape:pageopacity="0.0"
     inkscape:pageshadow="2"
     inkscape:zoom="1"
     inkscape:cx="110.4421"
     inkscape:cy="111.57303"
     inkscape:document-units="mm"
     inkscape:current-layer="layer1"
     showgrid="false"
     fit-margin-top="0"
     fit-margin-left="0"
     fit-margin-right="0"
     fit-margin-bottom="0"
     inkscape:window-width="1920"
     inkscape:window-height="1017"
     inkscape:window-x="-8"
     inkscape:window-y="-8"
     inkscape:window-maximized="1" />
  <metadata
     id="metadata33">
    <rdf:RDF>
      <cc:Work
         rdf:about="">
        <dc:format>image/svg+xml</dc:format>
        <dc:type
           rdf:resource="http://purl.org/dc/dcmitype/StillImage" />
        <dc:title></dc:title>
      </cc:Work>
    </rdf:RDF>
  </metadata>
  <g
     inkscape:label="Camada 1"
     inkscape:groupmode="layer"
     id="layer1"
     transform="translate(-99.290767,-135.67512)">
    <path
       d="m 109.29553,137.58939 c 0.50396,1.00333 1.2404,3.48793 1.53713,5.41539 0.47384,3.07581 -0.38237,4.40561 -1.5233,6.62501 -0.32844,-0.45628 -1.24611,-2.01311 -1.64632,-3.79128 -0.78554,-3.4967 0.5139,-5.04643 1.63249,-8.24912 z m -5.64681,10.15008 -1.81524,-4.90322 c 0.91432,0.56112 4.88592,4.16621 5.29649,5.22445 -1.01658,-0.35036 -2.08051,-0.44984 -3.48125,-0.32126 z m 3.12496,-1.7268 c -0.46413,-0.78588 -3.72023,-4.52251 -7.229968,-4.98894 l 0.290495,0.34016 c 1.792553,1.86381 2.388763,4.15801 3.354583,6.46168 -1.81623,0.28574 -3.898023,1.46734 -3.898023,3.53469 0,0.69676 0.545015,1.3654 1.306503,1.3654 h 0.23762 c 0.28728,0 0.92666,-0.31219 0.92666,-0.61248 -1.774693,0.35679 -2.01964,-0.82697 -1.38925,-2.05891 0.70621,-1.3786 2.23989,-1.67609 2.9713,-1.81226 0.5209,2.18897 2.74636,3.71916 4.9513,3.15615 -1.21584,-0.32202 -3.65912,-0.54357 -4.52572,-3.24316 2.34278,0 5.20308,1.13697 5.36519,3.00154 0.51621,-0.66967 1.2573,-2.38029 2.70304,-2.68784 0.0839,0.22149 0.21392,1.24533 0.39481,2.31177 0.16214,0.95649 0.46496,2.27696 -0.0911,3.16689 -0.20674,0.33109 -0.29744,0.67896 -1.02451,1.02275 -1.36298,0.64479 -1.86119,0.70833 -1.64058,0.70489 0.13228,-0.001 0.4786,-0.0151 1.204,-0.19087 3.26945,-0.81748 2.18053,-4.17437 1.94204,-7.23305 2.14053,0.0151 4.36826,0.88566 5.33926,1.95917 0.88422,0.97762 0.71611,2.18273 -1.2932,1.8798 1.6673,2.30296 4.24732,-1.347 1.22986,-3.24985 -1.80632,-1.13901 -3.23241,-1.23286 -5.33477,-1.23653 -0.18746,-3.01294 1.54549,-5.36466 5.08785,-6.96716 -0.3583,0.73414 -0.53363,2.10386 -0.73769,2.84507 -0.48283,1.75318 -1.5027,3.12422 -2.62964,3.68858 2.36496,0.22413 2.91182,-2.0074 3.38577,-4.23122 0.27137,-1.27382 0.67325,-2.46563 0.98846,-3.39404 -2.34361,1.10193 -5.35623,2.34809 -6.78171,5.28458 0.13001,-3.04538 -1.74082,-6.29304 -2.69904,-9.15436 -0.0302,0.2332 -0.11036,0.41519 -0.20372,0.63368 -1.59692,3.72245 -3.48068,5.11099 -2.19995,9.70406 z m 4.92812,1.79435 c -0.21165,0.0763 -0.92439,0.53261 -1.03049,0.7279 0.27024,-0.3326 0.79461,-1.73897 0.91495,-2.28705 0.0302,-0.13266 0.11565,1.3394 0.11565,1.55915 z"
       style="fill:#c10e1f;fill-rule:evenodd;stroke-width:0.39546311"
       id="path18"
       inkscape:connector-curvature="0" />
  </g>
</svg>
