<?xml version="1.0" encoding="UTF-8" standalone="no"?>
<!-- Created with Inkscape (http://www.inkscape.org/) -->

<svg
   xmlns:dc="http://purl.org/dc/elements/1.1/"
   xmlns:cc="http://creativecommons.org/ns#"
   xmlns:rdf="http://www.w3.org/1999/02/22-rdf-syntax-ns#"
   xmlns:svg="http://www.w3.org/2000/svg"
   xmlns="http://www.w3.org/2000/svg"
   xmlns:sodipodi="http://sodipodi.sourceforge.net/DTD/sodipodi-0.dtd"
   xmlns:inkscape="http://www.inkscape.org/namespaces/inkscape"
   width="15.00002mm"
   height="14.999994mm"
   viewBox="0 0 15.00002 14.999994"
   version="1.1"
   id="svg36"
   inkscape:version="0.92.4 (5da689c313, 2019-01-14)"
   sodipodi:docname="logo-patricia.svg">
  <defs
     id="defs30" />
  <sodipodi:namedview
     id="base"
     pagecolor="#ffffff"
     bordercolor="#666666"
     borderopacity="1.0"
     inkscape:pageopacity="0.0"
     inkscape:pageshadow="2"
     inkscape:zoom="1"
     inkscape:cx="110.4421"
     inkscape:cy="111.57299"
     inkscape:document-units="mm"
     inkscape:current-layer="layer1"
     showgrid="false"
     fit-margin-top="0"
     fit-margin-left="0"
     fit-margin-right="0"
     fit-margin-bottom="0"
     inkscape:window-width="1920"
     inkscape:window-height="1017"
     inkscape:window-x="-8"
     inkscape:window-y="-8"
     inkscape:window-maximized="1" />
  <metadata
     id="metadata33">
    <rdf:RDF>
      <cc:Work
         rdf:about="">
        <dc:format>image/svg+xml</dc:format>
        <dc:type
           rdf:resource="http://purl.org/dc/dcmitype/StillImage" />
        <dc:title></dc:title>
      </cc:Work>
    </rdf:RDF>
  </metadata>
  <g
     inkscape:label="Camada 1"
     inkscape:groupmode="layer"
     id="layer1"
     transform="translate(-99.290765,-140.67512)">
    <path
       d="m 106.79436,142.11095 c 0.37797,0.7525 0.93029,2.61594 1.15283,4.06152 0.35538,2.30684 -0.28678,3.30416 -1.14245,4.96869 -0.24635,-0.34219 -0.93461,-1.50979 -1.23476,-2.84341 -0.58915,-2.6225 0.38542,-3.7848 1.22438,-6.1868 z m -4.23512,7.6125 -1.36143,-3.67739 c 0.68574,0.42085 3.66445,3.12464 3.97236,3.91832 -0.76242,-0.26268 -1.56039,-0.3374 -2.61093,-0.24093 z m 2.34372,-1.29508 c -0.34809,-0.58941 -2.79017,-3.39187 -5.422479,-3.74169 l 0.217863,0.2551 c 1.344416,1.39785 1.791576,3.11848 2.515956,4.84623 -1.36219,0.21435 -2.923535,1.10049 -2.923535,2.65098 0,0.52256 0.408761,1.02403 0.979875,1.02403 h 0.17822 c 0.21547,0 0.695,-0.23415 0.695,-0.45933 -1.33102,0.26756 -1.51473,-0.62024 -1.04194,-1.54419 0.52966,-1.03392 1.67993,-1.25705 2.22849,-1.35917 0.39065,1.64169 2.05976,2.78934 3.71346,2.36709 -0.91188,-0.24141 -2.74432,-0.40769 -3.3943,-2.43236 1.7571,0 3.90233,0.85272 4.0239,2.25113 0.38716,-0.50223 0.94299,-1.7852 2.0273,-2.01585 0.0629,0.16602 0.16042,0.93398 0.29609,1.7338 0.12165,0.71739 0.34873,1.70771 -0.0683,2.37516 -0.15511,0.24834 -0.2232,0.50921 -0.76839,0.76707 -1.02222,0.48359 -1.3959,0.53124 -1.23044,0.52865 0.0993,-10e-4 0.35895,-0.0111 0.90302,-0.14327 2.45208,-0.61309 1.63538,-3.13075 1.45653,-5.42475 1.60538,0.01 3.27619,0.66426 4.00445,1.46939 0.66317,0.73321 0.53706,1.63702 -0.96991,1.40982 1.25048,1.7272 3.18548,-1.01024 0.92238,-2.43737 -1.35473,-0.85425 -2.42428,-0.92464 -4.00106,-0.92739 -0.14075,-2.25969 1.15911,-4.02344 3.81589,-5.2253 -0.26863,0.55058 -0.40023,1.57787 -0.55326,2.13376 -0.36214,1.31488 -1.12704,2.34315 -1.97226,2.76643 1.77373,0.16816 2.18388,-1.50556 2.53935,-3.17339 0.20364,-0.95536 0.50492,-1.84922 0.74133,-2.54551 -1.75769,0.82643 -4.01716,1.76105 -5.08629,3.96339 0.0976,-2.28402 -1.30561,-4.71973 -2.02428,-6.86571 -0.0232,0.17491 -0.0827,0.3114 -0.15272,0.47526 -1.19771,2.79183 -2.61053,3.83322 -1.64996,7.27799 z m 3.69609,1.34574 c -0.15873,0.0572 -0.6933,0.39945 -0.77286,0.54591 0.20268,-0.24942 0.59597,-1.30421 0.68621,-1.71525 0.0218,-0.0995 0.0867,1.00452 0.0867,1.16934 z"
       style="fill:#c10e1f;fill-rule:evenodd;stroke-width:0.29659623"
       id="path18"
       inkscape:connector-curvature="0" />
  </g>
</svg>
